<svg width="24" height="24" viewBox="0 0 24 24" fill="none" xmlns="http://www.w3.org/2000/svg">
<g filter="url(#filter0_di_368_320)">
<path fill-rule="evenodd" clip-rule="evenodd" d="M2.03059 16.655C1.92312 16.4838 2.11783 16.2881 2.29876 16.3783C3.71907 17.0862 5.31872 17.4841 7.01058 17.4841C12.8876 17.4841 17.6518 12.6834 17.6518 6.76154C17.6518 5.16651 17.3062 3.65282 16.6863 2.29237C16.6025 2.10842 16.8048 1.92095 16.9721 2.03456C19.8072 3.96075 21.6719 7.22666 21.6719 10.9314C21.6719 16.8533 16.9076 21.6539 11.0306 21.6539C7.24219 21.6539 3.91616 19.6591 2.03059 16.655Z" fill="url(#paint0_linear_368_320)"/>
</g>
<defs>
<filter id="filter0_di_368_320" x="0" y="0" width="23.6719" height="23.6539" filterUnits="userSpaceOnUse" color-interpolation-filters="sRGB">
<feFlood flood-opacity="0" result="BackgroundImageFix"/>
<feColorMatrix in="SourceAlpha" type="matrix" values="0 0 0 0 0 0 0 0 0 0 0 0 0 0 0 0 0 0 127 0" result="hardAlpha"/>
<feOffset/>
<feGaussianBlur stdDeviation="1"/>
<feComposite in2="hardAlpha" operator="out"/>
<feColorMatrix type="matrix" values="0 0 0 0 0.517647 0 0 0 0 0.490196 0 0 0 0 0.462745 0 0 0 0.4 0"/>
<feBlend mode="normal" in2="BackgroundImageFix" result="effect1_dropShadow_368_320"/>
<feBlend mode="normal" in="SourceGraphic" in2="effect1_dropShadow_368_320" result="shape"/>
<feColorMatrix in="SourceAlpha" type="matrix" values="0 0 0 0 0 0 0 0 0 0 0 0 0 0 0 0 0 0 127 0" result="hardAlpha"/>
<feOffset/>
<feGaussianBlur stdDeviation="2"/>
<feComposite in2="hardAlpha" operator="arithmetic" k2="-1" k3="1"/>
<feColorMatrix type="matrix" values="0 0 0 0 0.85098 0 0 0 0 0.737255 0 0 0 0 0.52549 0 0 0 0.3 0"/>
<feBlend mode="normal" in2="shape" result="effect2_innerShadow_368_320"/>
</filter>
<linearGradient id="paint0_linear_368_320" x1="9.67187" y1="13.6539" x2="17.1719" y2="23.6539" gradientUnits="userSpaceOnUse">
<stop stop-color="#DEDCD9"/>
<stop offset="1" stop-color="#ADA69F"/>
</linearGradient>
</defs>
</svg>
